<?xml version="1.0" encoding="utf-8"?>
<!-- Generator: Adobe Illustrator 28.3.0, SVG Export Plug-In . SVG Version: 6.00 Build 0)  -->
<svg version="1.1" id="Layer_1" xmlns="http://www.w3.org/2000/svg" xmlns:xlink="http://www.w3.org/1999/xlink" x="0px" y="0px"
	 viewBox="0 0 1443.98 978.2" style="enable-background:new 0 0 1443.98 978.2;" xml:space="preserve">
<style type="text/css">
	.st0{display:none;fill:#CA0265;}
	.st1{fill-rule:evenodd;clip-rule:evenodd;fill:#012047;}
	.st2{fill:#15B4C2;}
	.st3{fill:#2A3139;}
</style>
<path class="st0" d="M116.81-57.6c0,0,28,5,36.94,29C153.75-28.6,145.76-56.02,116.81-57.6z"/>
<path class="st1" d="M624.58,785.52c0,0-71.35,70.83-120.51-76.64c0,0-35.94-115.22-84.04-3.17c0,0-52.85,188.16-147.99,68.18
	c0,0-74.53-96.72-84.57-193.98c0,0,75.05,227.28,146.94,218.29c0,0,44.93,11.63,74-98.31c0,0,56.55-128.97,107.82,6.34
	C516.23,706.24,542.13,829.39,624.58,785.52z"/>
<path class="st1" d="M155.76,414.48c0,0-7.4-192.39,127.91-191.33c0,0,50.21-8.46,140.07,57.61c0,0,95.14,61.84,159.09,0
	c0,0-71.35,58.14-183.41-29.6C399.42,251.16,153.65,86.78,155.76,414.48z"/>
<path class="st1" d="M155.76,414.48c0,0-2.84-112.6,52.49-163.46l4.56-20.78C212.81,230.24,137.26,284.46,155.76,414.48z"/>
<g>
	<path class="st2" d="M516.15,261.49l0.23-0.24l1.87-1.88l0.9-0.89l0.47-0.47l0.47-0.44l0.93-0.86l0.98-0.89l0.98-0.89l0.48-0.43
		l0.5-0.43c1.3-1.12,2.65-2.23,4.02-3.31c1.37-1.07,2.75-2.14,4.16-3.17c0.7-0.51,1.42-1.04,2.11-1.52c0.72-0.5,1.43-0.98,2.16-1.47
		c0.9-0.6,1.83-1.16,2.76-1.74c15.57-8.05,45.1-20.53,78.97-20.79c0,0-57-4.21-83.97,19.94c-0.62,0.37-1.25,0.74-1.85,1.12
		c-0.79,0.49-1.52,0.96-2.27,1.46c-1.5,0.98-2.98,1.98-4.44,3.03c-1.46,1.05-2.89,2.13-4.31,3.25l-0.52,0.41l-0.52,0.43l-1.02,0.85
		l-1.02,0.85l-1.05,0.9l-0.52,0.45l-0.49,0.45l-1.02,0.94l-1.95,1.8l-0.24,0.23l-0.29,0.29l-0.47,0.47l-0.94,0.94l-1.88,1.89
		l-0.12,0.12l-0.15,0.16l-0.22,0.24l-0.45,0.49l-0.92,1.02l-1.77,1.97l-1.74,2.1l-0.42,0.51l-0.5,0.63l-0.82,1.04l-0.82,1.04
		l-0.8,1.07l-1.59,2.16c-0.54,0.74-1.06,1.48-1.59,2.28l-1.45,2.18l-0.37,0.55l-0.18,0.28l-0.09,0.14l-0.15,0.25l-0.69,1.13
		l-1.37,2.27l-0.69,1.15l-0.68,1.19l-1.3,2.33l-2.54,4.67l-0.63,1.17l-0.32,0.58l-0.08,0.15l-0.13,0.26l-0.15,0.3l-1.18,2.37
		l-4.76,9.57c-1.5,3.25-2.94,6.54-4.24,9.91c-1.3,3.35-2.5,6.79-3.53,10.28c-1.03,3.48-1.9,7.09-2.46,10.74
		c-0.14,0.91-0.27,1.84-0.38,2.73l-0.3,2.61c-0.05,0.4-0.11,0.77-0.17,1.09c-0.06,0.31-0.16,0.58-0.14,0.55
		c-0.07,0.18-0.21,0.38-0.36,0.55l-0.07-0.05c-0.2-0.15-0.43-0.34-0.67-0.57c-0.48-0.45-0.98-1.02-1.44-1.62
		c-0.47-0.58-0.91-1.22-1.33-1.89l0,0c-0.39-0.66-0.8-1.31-1.15-1.99c-0.36-0.68-0.71-1.36-1.03-2.06c-0.31-0.7-0.63-1.4-0.89-2.12
		c-0.27-0.72-0.53-1.45-0.75-2.19c-0.22-0.74-0.43-1.49-0.58-2.25c-0.09-0.39-0.16-0.71-0.23-1.15l-0.03-0.16l-0.01-0.08l-0.01-0.04
		l0-0.07l0-0.01l0-0.02l0-0.02c0.01,0.17,0,0.05,0,0.08l0,0l0-0.01l-0.01-0.04l-0.01-0.07l-0.02-0.15
		c-0.03-0.19-0.06-0.39-0.09-0.59c-0.1-0.78-0.18-1.58-0.21-2.38c-0.01-0.4-0.03-0.8-0.03-1.21c0-0.4,0.03-0.82,0.05-1.19l0.09-1.58
		l-1.07,0.95l-0.03,0.03l-0.68,0.61c-0.23,0.2-0.43,0.43-0.64,0.65c-0.21,0.22-0.42,0.45-0.6,0.7c-0.19,0.24-0.39,0.48-0.56,0.73
		l-0.51,0.77l-0.46,0.81c-0.16,0.27-0.28,0.55-0.41,0.83c-0.14,0.28-0.24,0.57-0.36,0.86c-0.12,0.29-0.22,0.58-0.31,0.88
		c-0.1,0.29-0.19,0.59-0.26,0.89c-0.02,0.06-0.02,0.13-0.04,0.2c-0.02-0.13-0.06-0.26-0.06-0.38c-0.02-0.22-0.03-0.46-0.02-0.69
		c0.01-0.23,0.03-0.46,0.04-0.69l0.17-3.26l-1.3,2.98c-0.77,1.76-1.14,3.54-1.42,5.37c-0.26,1.83-0.35,3.68-0.31,5.54
		c0.07,1.86,0.22,3.69,0.56,5.58c0.07,0.49,0.17,0.9,0.26,1.35l0.14,0.66l0.07,0.33l0.03,0.16l0.05,0.22
		c0.22,0.91,0.47,1.81,0.74,2.7c0.54,1.8,1.2,3.54,1.98,5.26l0.28,0.62l0.03,0.08c0.04,0.08-0.07-0.12,0.1,0.19l0.02,0.04l0.08,0.15
		l0.17,0.29l0.69,1.15l0.01,0.02l-0.48,0.25l-2.39,1.22l-2.38,1.22l-0.6,0.31l-0.3,0.15l-0.04,0.02c-0.09,0.05,0.08-0.05,0.05-0.03
		l-0.08,0.04l-0.15,0.07l-1.21,0.58l-9.66,4.65l-2.41,1.16l-2.37,1.09l-4.85,2.18c-3.24,1.43-6.49,2.81-9.75,4.14
		c-3.28,1.33-6.53,2.64-9.81,3.85c-1.64,0.6-3.27,1.21-4.92,1.78l-2.45,0.83l-2.52,0.82c-3.42,1.13-6.85,2.29-10.35,3.65
		c-1.75,0.68-3.5,1.44-5.31,2.35c-1.8,0.93-3.65,1.96-5.55,3.61c-0.94,0.84-1.89,1.83-2.71,3.1c-0.81,1.28-1.42,2.81-1.69,4.37
		c-0.24,1.54-0.21,3.05,0.01,4.36c0.04,0.35,0.12,0.64,0.19,0.96c0.07,0.31,0.14,0.63,0.22,0.92c0.18,0.56,0.35,1.16,0.56,1.68
		c0.81,2.13,1.76,3.93,2.78,5.63c1.02,1.68,2.06,3.25,3.17,4.81l0.79,1.09l0.47,0.65l0.41,0.54l1.65,2.13l1.66,2.12l0.84,1.06
		l0.1,0.13l0.2,0.26l0.05,0.06l0.03,0.03c-0.01-0.01,0.05,0.07-0.01-0.01l0.06,0.07l0.12,0.13l0.46,0.53
		c2.46,2.81,5.04,5.46,7.75,7.96c0.55,0.5,1.12,0.98,1.67,1.48l-0.16-0.01l-0.09-0.01l0,0l0,0l0,0c0.02,0,0.06,0,0.2,0.01l0,0
		l-0.04-0.01l-0.04-0.01l-0.17-0.04l-0.17-0.04l-0.08-0.02l-0.03-0.01l-0.21-0.02l-0.01,0l-0.04-0.01l-0.09-0.01l-0.04-0.01l-0.02,0
		l-0.01,0l-0.01,0c-0.06,0,0.09,0,0.07,0l0,0h0l0,0l-0.34-0.06l-0.06-0.01l0.22,0.02c-0.21-0.03-0.39-0.05-0.48-0.05
		c-0.25-0.01-0.29,0-0.38,0l-0.02,0c-0.02,0,0.18-0.01,0.09,0l-0.02,0l-0.04,0l-0.15-0.01l-0.07-0.01l-0.04,0l-0.08,0l-0.01,0
		l-0.02,0l-0.15-0.01l-0.3-0.02l-0.15-0.01l-0.02,0l-0.38,0.03h-0.01l-0.04,0l-0.08,0l-0.6,0l-0.3,0l-0.15,0l-0.07,0l-0.04,0
		l-0.54,0.1l-0.59,0.09l-0.3,0.04l-0.15,0.02l-0.04,0.01l-0.02,0c0.28-0.08-0.39,0.11-0.33,0.09l-0.01,0l-0.07,0.01l-0.29,0.06
		l-0.15,0.03l-0.04,0.01l-0.31,0.11l-0.02,0.01l-0.07,0.02l-0.29,0.09l-0.14,0.04l-0.02,0.01l-0.01,0
		c-0.15,0.06,0.32-0.14-0.33,0.15l-0.04,0.01l-0.07,0.03l-0.56,0.21l-0.28,0.11l-0.14,0.05l-0.03,0.01l-0.51,0.29l-0.07,0.04
		l-0.53,0.29l-0.26,0.14l-0.13,0.07l-0.03,0.02l-0.01,0l-0.41,0.3l-0.08,0.05l-0.49,0.34l-0.25,0.17l-0.12,0.08l-0.56,0.5
		l-0.45,0.39l-0.22,0.2l-0.06,0.05l-0.03,0.02l-0.01,0.01c0.3-0.34-0.42,0.48-0.35,0.39l-0.01,0.01l-0.1,0.11l-0.4,0.44l-0.2,0.22
		l-0.01,0.01l-0.2,0.27l-0.01,0.01l-0.02,0.03l-0.05,0.06l-0.1,0.11l-0.1,0.12l-0.05,0.06l-0.01,0.01c-0.09,0.13,0.18-0.29-0.2,0.3
		l-0.01,0.01l-0.02,0.03l-0.17,0.25l-0.38,0.59l-0.16,0.25l-0.08,0.12l-0.04,0.06l-0.24,0.47l-0.27,0.53l-0.07,0.13l-0.03,0.07
		l-0.21,0.52l-0.12,0.27l-0.12,0.27l-0.06,0.14l-0.01,0.03l0,0.01l-0.09,0.26l-0.01,0.02l-0.03,0.07l-0.2,0.56l-0.25,0.82
		c-0.15,0.5-0.27,1.02-0.38,1.53c-0.23,1.03-0.34,2.08-0.42,3.08c-0.07,0.98-0.09,2.01-0.06,2.95c0.03,0.96,0.12,1.92,0.23,2.86
		c0.06,0.48,0.12,0.92,0.21,1.44l0.05,0.3l0.07,0.4l0.13,0.68c0.18,0.9,0.41,1.79,0.66,2.68c0.25,0.88,0.53,1.76,0.83,2.62
		c0.08,0.24,0.19,0.47,0.28,0.71c-0.14,0.06-0.28,0.1-0.42,0.16c-0.65,0.26-1.3,0.56-1.95,0.88c-0.32,0.16-0.64,0.33-0.96,0.51
		l-0.49,0.28l-0.44,0.26l-0.09,0.06l-0.18,0.11l-0.04,0.03l-0.17,0.12l-0.35,0.24l-0.69,0.48l-0.35,0.24l-0.03,0.02l-0.05,0.04
		l-0.1,0.09l-0.21,0.17l-0.41,0.35l-0.82,0.7l-0.25,0.22l-0.23,0.26l-0.73,0.81l-0.36,0.4l-0.09,0.1l-0.4,0.49l-0.02,0.03
		l-0.04,0.06l-0.16,0.22l-0.32,0.44l-0.29,0.43l-0.04,0.06l-0.07,0.11l-0.14,0.23l-0.14,0.23l-0.07,0.11l-0.02,0.03l-0.21,0.36
		l-0.03,0.05l-0.27,0.52c-0.21,0.41-0.46,0.93-0.71,1.57l-0.16,0.45l-0.09,0.29l-0.17,0.52l-0.04,0.13l-0.13,0.41l-0.01,0.07
		l-0.17,0.8l-0.01,0.07l-0.1,0.46l-0.01,0.04l-0.03,0.15l-0.05,0.31l-0.1,0.62l-0.05,0.32l-0.02,0.37l-0.04,0.87l-0.02,0.96l0,0.34
		l0,0.11l0.02,0.36l0.01,0.11l0.03,0.43l0.05,0.62l0.05,0.43l0.13,1.06l0.05,0.34l0.04,0.21l0.04,0.21l0.08,0.43l0.02,0.11l0.4,1.7
		l0.1,0.42l0.05,0.21l0.11,0.43l0.05,0.16c0.14,0.42,0.29,0.9,0.45,1.27c0.31,0.79,0.65,1.47,0.97,2.1c0.66,1.25,1.3,2.3,1.86,3.26
		c0.56,0.95,1.03,1.8,1.33,2.49c0.15,0.34,0.26,0.64,0.32,0.86c0.05,0.13,0.03,0.18,0.07,0.27l0.01,0.03l-0.01-0.04
		c0-0.03-0.01-0.05-0.01-0.08c0-0.05,0.01-0.11,0.04-0.16c0.01-0.03,0.01,0.01,0,0.05l-0.01,0.11l-0.01,0.22l-0.01,0.13
		c0,0.01,0,0.02-0.01,0.04c-0.02,0.13-0.11,0.35-0.23,0.6c-0.27,0.52-0.71,1.2-1.3,1.92c-0.59,0.73-1.27,1.48-2.08,2.35l-1.11,1.19
		c-0.33,0.35-0.68,0.69-1.04,1.03c-0.71,0.68-1.48,1.35-2.25,1.96l-0.31,0.25l-0.09,0.07l-0.04,0.03c0.01-0.01-0.09,0.07,0.02-0.01
		l-0.17,0.13l-0.69,0.52l-0.57,0.43l-0.71,0.5l-0.59,0.42l-0.72,0.48l-0.75,0.5l-0.04,0.03c0.01-0.01-0.09,0.06,0.02-0.01
		l-0.09,0.06l-0.18,0.12l-0.33,0.22l-0.04,0.03c0.03-0.02-0.13,0.1,0.06-0.04l-0.04,0.03l-0.18,0.13l-0.34,0.24l-0.18,0.13
		l-0.2,0.15l-0.26,0.2l-0.08,0.07c-0.03,0.03,0.14-0.11,0.05-0.03l-0.04,0.03l-0.17,0.13l-0.32,0.26l-0.17,0.14l-0.66,0.56
		l-0.17,0.14c-0.54,0.47-0.17,0.15-0.3,0.27l-0.04,0.04l-0.08,0.08l-0.31,0.3l-0.31,0.3l-0.28,0.28l-0.15,0.16l-0.59,0.63
		l-0.21,0.22l-0.07,0.08l-0.14,0.16l-0.29,0.33l-0.29,0.33c-0.35,0.41-0.12,0.14-0.21,0.25l-0.04,0.05l-0.07,0.09l-0.15,0.19
		c-0.79,1.02-1.58,2.11-2.31,3.31c-2.8,4.6-4.57,9.84-4.92,15.32c-0.09,1.36-0.09,2.72,0,4.08c0.05,0.7,0.1,1.32,0.2,2.08
		c0.08,0.6,0.19,1.31,0.32,1.97c0.51,2.66,1.34,5.23,2.46,7.68c0.13,0.29,0.3,0.64,0.45,0.95l0.2,0.39l0.05,0.1
		c0.17,0.33,0.06,0.12,0.11,0.2l0.03,0.05l0.11,0.19l0.88,1.51l0.11,0.19l0.29,0.47l0.06,0.09l0.23,0.37l0.23,0.37l0.08,0.12
		l0.06,0.09l0.13,0.18l1.03,1.44l0.31,0.41l0.4,0.52l0.13,0.17l0.19,0.23l0.28,0.33l1.08,1.25c0.58,0.71,1.13,1.23,1.51,1.61
		l1.29,1.26l0.31,0.31l0.16,0.15l0.08,0.08l0.2,0.19l0.04,0.04l0.66,0.57l1.34,1.15l0.77,0.65l0.49,0.38l0.24,0.18
		c0.05,0.04-0.27-0.21-0.11-0.09l0.05,0.04l0.09,0.07c0.49,0.38,0.99,0.75,1.49,1.12c2.01,1.46,4.08,2.8,6.2,4.03
		c2.12,1.24,4.27,2.36,6.44,3.41c2.23,1.06,4.39,1.99,6.62,2.9c2.22,0.89,4.47,1.71,6.72,2.48c1.14,0.38,2.27,0.77,3.38,1.09
		l3.42,1.03l1.7,0.5l0.91,0.26l0.84,0.22l0.83,0.21h0c0,0,0,0,0,0l2.56,0.66l6.8,1.69l1.15,0.28c0.62,0.3,2.07,0.62,4.2,1.04
		l1.36,0.34c1.86,0.44,25.22,5.65,27.56,6.24c27,7.94,63.52,24.88,82.61,63.73c-11.55-24.62-38.5-65.55-91.6-71.44
		c-9.21-2.04-17.01-3.96-17.01-3.96l-6.73-2.03l-6.64-2.02l-3.31-1.03l-0.83-0.26l-0.75-0.26l-1.62-0.57l-3.21-1.15
		c-1.11-0.38-2.16-0.81-3.21-1.22c-2.11-0.84-4.19-1.73-6.24-2.67c-2.04-0.93-4.12-1.93-6.05-2.95c-1.97-1.05-3.9-2.17-5.76-3.36
		c-1.86-1.19-3.65-2.45-5.35-3.8c-0.43-0.34-0.85-0.68-1.26-1.03l-0.08-0.06l-0.04-0.03l-0.2-0.15l-0.09-0.07l-0.02-0.02l-0.19-0.17
		l-0.54-0.5l-1.27-1.18l-0.55-0.52c0,0,0,0,0,0l-0.07-0.08l-0.15-0.16l-0.3-0.32l-1.15-1.23c-0.43-0.45-0.71-0.76-0.85-0.96
		l-1.14-1.44l-0.27-0.34l-0.21-0.29l-0.25-0.35l-0.13-0.18l-0.03-0.04c0.07,0.09-0.2-0.27,0.15,0.2l-0.06-0.09l-0.94-1.43
		l-0.12-0.18l-0.06-0.09l-0.03-0.05c0.03,0.05-0.01-0.02-0.01-0.02l-0.22-0.38l-0.22-0.38l-0.05-0.09l-0.03-0.05
		c0.09,0.15-0.25-0.41,0.2,0.33l-0.1-0.19l-0.82-1.54l-0.08-0.16l-0.03-0.07l-0.18-0.4l-0.27-0.64c-0.76-1.81-1.3-3.7-1.61-5.62
		c-0.08-0.49-0.13-0.93-0.19-1.48c-0.04-0.4-0.07-0.93-0.09-1.39c-0.03-0.96,0-1.92,0.09-2.87c0.09-0.95,0.25-1.89,0.46-2.82
		c0.03-0.13,0.13-0.57,0.18-0.74l0.18-0.66c0.14-0.46,0.28-0.92,0.45-1.37c0.65-1.81,1.53-3.54,2.58-5.17
		c0.5-0.76,1.09-1.54,1.74-2.32l0.12-0.14l0.26-0.27l0.3-0.32l0.13-0.14c0,0-0.03,0.03-0.01,0.01l0.04-0.04l0.61-0.61l0.09-0.09
		l0.01-0.01l0.08-0.07l0.32-0.29l0.28-0.26l0.11-0.09l0.68-0.54l0.17-0.13l0.06-0.05c-0.02,0.02-0.04,0.03-0.09,0.07l0.04-0.03
		l0.41-0.31c-0.19,0.15-0.01,0.01-0.06,0.05l0.04-0.03c0.04-0.03-0.19,0.14-0.07,0.05l0.18-0.12l0.37-0.25l0.18-0.12l0.04-0.03
		l0.4-0.24l0.71-0.44l0.74-0.46l0.85-0.56l0.72-0.48l0.48-0.33l0.35-0.25l0.71-0.5l0.42-0.3l0.38-0.28c1.06-0.79,2.06-1.61,3.06-2.5
		c0.5-0.44,0.98-0.9,1.45-1.38l1.28-1.33c0.78-0.81,1.68-1.74,2.57-2.79c0.89-1.05,1.81-2.27,2.63-3.79
		c0.4-0.78,0.79-1.62,1.07-2.61c0.15-0.47,0.25-1.02,0.35-1.54c-0.03,0.32,0.06-0.55,0.05-0.47l0-0.05l0.01-0.11l0.02-0.22
		l0.02-0.22l0.01-0.11c0-0.03,0.01-0.06,0.01-0.17c0-0.34,0-0.68-0.02-1.02l-0.04-0.51l-0.02-0.25l-0.03-0.18
		c-0.08-0.48-0.16-1-0.28-1.44c-0.23-0.9-0.52-1.7-0.82-2.43c-0.6-1.45-1.26-2.64-1.86-3.71c-0.6-1.06-1.14-2.02-1.55-2.83
		c-0.2-0.41-0.36-0.77-0.47-1.07c-0.07-0.16-0.07-0.24-0.12-0.35l-0.01-0.06l-0.09-0.43l-0.35-1.62l-0.03-0.19l-0.03-0.22l0,0
		c0,0.03-0.01-0.06,0-0.03l-0.01-0.05l-0.05-0.43l-0.01-0.11l-0.01-0.05c-0.01-0.06,0.04,0.34,0.02,0.15l-0.02-0.22l-0.03-0.34
		l0-0.02l-0.01-0.11l-0.01-0.22l-0.02-0.42l0-0.01l0-0.18l0-0.11c-0.01,0.21,0,0.03,0,0.06l0-0.05l0.02-0.45l0.02-0.38l0.05-0.26
		l0.04-0.23l0.01-0.05l0.07-0.29l0.05-0.19l0.17-0.5l0.08-0.23c0.01-0.03,0.04-0.12,0.03-0.1c0,0.01-0.02,0.05-0.01,0.04
		c0.02-0.04,0.08-0.16,0.2-0.4l0.15-0.27l0.05-0.08l0.15-0.23l0.08-0.12l0.29-0.39l0,0l0.33-0.35l0.44-0.47l0.3-0.24l0.23-0.2
		l0.12-0.1l0.06-0.05l0.01-0.01l0.44-0.29l0.35-0.23l0.16-0.11l0.06-0.04l0.18-0.11l0.1-0.06l0.24-0.13
		c0.18-0.09,0.35-0.18,0.54-0.27c0.36-0.17,0.74-0.33,1.14-0.48c0.4-0.15,0.82-0.3,1.27-0.44l0.61-0.18l0.68-0.18
		c0.91-0.23,1.83-0.42,2.79-0.57l7.87-1.25l-3.76-7.46l-0.93-1.84l-0.47-0.92c-0.07-0.15-0.17-0.31-0.23-0.45l-0.22-0.51
		c-0.25-0.59-0.52-1.25-0.76-1.88c-0.24-0.63-0.46-1.27-0.67-1.92c-0.2-0.64-0.38-1.3-0.55-1.95l-0.12-0.49l-0.03-0.12l-0.02-0.06
		l-0.01-0.03l0-0.02c-0.01-0.05,0.01,0.07,0.01,0.05l0-0.01l-0.06-0.28c-0.06-0.27-0.13-0.62-0.19-0.92
		c-0.12-0.63-0.2-1.26-0.27-1.89c-0.07-0.65-0.11-1.21-0.12-1.82c-0.01-0.59,0.02-1.13,0.07-1.66c0.03-0.27,0.06-0.53,0.1-0.8
		l0.04-0.2l0.02-0.1l0-0.01c-0.01,0.04,0.03-0.11-0.03,0.1l0-0.01l0.01-0.04l0.02-0.07l0.14-0.58l0.02-0.07l0-0.02
		c0.01-0.03-0.04,0.11-0.07,0.21l0-0.01l0.05-0.14l0.09-0.28l0.09-0.28l0.01-0.04l0.01-0.02l0-0.01c-0.08,0.2,0.18-0.45-0.18,0.44
		l0.03-0.07l0.05-0.14l0.21-0.56l0.01-0.04l0.01-0.02l0-0.01c-0.09,0.18,0.21-0.41-0.2,0.4l0.03-0.07l0.06-0.13l0.13-0.27
		c0.42-0.85,0.14-0.48,0.78-1.4l0.08-0.12l0.01-0.01c0.04-0.05-0.18,0.21-0.32,0.36l0.02-0.02l0.05-0.06l0.2-0.22l0.39-0.45
		l0.05-0.06l0.02-0.03c-0.2,0.18,0.45-0.41-0.44,0.4l0.01-0.01l0.01-0.01l0.11-0.1l0.22-0.21l0.43-0.41l0.05-0.05l0.01-0.01
		c-0.18,0.13,0.41-0.3-0.4,0.29l0.01-0.01l0.03-0.02l0.12-0.09l0.24-0.18l0.47-0.36l0.06-0.05l0.01-0.01l0.01-0.01
		c-0.21,0.12,0.48-0.27-0.47,0.27l0.03-0.02l0.13-0.07l0.26-0.15l0.51-0.3l0.06-0.04l0.03-0.02c-0.64,0.29-0.17,0.08-0.31,0.14
		l0.01,0l0.02-0.01l0.13-0.07l0.27-0.14l0.07-0.03l0.02-0.01l0.01,0c-0.13,0.05,0.29-0.11-0.28,0.1l0.03-0.01l0.14-0.06l0.28-0.11
		l0.07-0.03l0.01,0c0.07-0.02-0.59,0.17-0.31,0.09l0.02-0.01l0.04-0.01l0.14-0.05l0.28-0.1l0.57-0.2l0.02-0.01l0.01,0
		c0.45-0.08-0.61,0.11-0.49,0.09l0.04-0.01l0.07-0.01l0.15-0.03l0.29-0.06l0.59-0.13l0.07-0.02l0.04-0.01l0.01,0
		c-0.16,0.01,0.38-0.03-0.36,0.03l0.02,0l0.15-0.02l0.3-0.04l0.15-0.02l0.02,0l0.01,0c0.07,0-0.09,0-0.07,0l0.04,0l0.22-0.03l0.04,0
		l0.02,0l0.11,0c0,0,0.02,0,0,0c-0.05,0-0.1,0-0.2,0l0.03,0l0.01,0l0,0l0,0c-0.06,0-0.19-0.01-0.17-0.01h0l0.01,0l0.02,0l0.09,0
		l0.17-0.01l0.17-0.01l0.08,0h0.01l0.01,0l0.02,0l0.04,0l0.09,0l0.04,0l0.01,0h0c-0.4-0.03-0.11-0.01-0.2-0.01h0.01l0.02,0l0.09,0
		l0.17,0l0.17,0l0.04,0l0.02,0l0.01,0l0.01,0l0.2,0.01l0.09-0.01l-0.31-0.03c1.78,0.05,3.53-0.09,5.24-0.38
		c0.43-0.08,0.85-0.16,1.27-0.25c0.22-0.05,0.4-0.1,0.64-0.15l0.64-0.18c0.85-0.25,1.68-0.53,2.5-0.9l0.02-0.01l3.93-1.73
		l-2.89-3.12l-0.23-0.25l-0.11-0.12l-0.03-0.03c-0.03-0.03,0.19,0.17,0.08,0.07l-0.05-0.07l-0.41-0.5l-0.84-1.02l-1.67-2.05
		l-3.3-4.12c-2.15-2.78-4.29-5.54-6.28-8.36l-0.38-0.53l-0.22-0.31l-0.05-0.07c0.28,0.37,0.06,0.08,0.12,0.15l-0.02-0.04l-0.09-0.14
		l-0.73-1.13l-1.48-2.25l-1.48-2.25l-0.37-0.55l-0.05-0.07c0.13,0.19,0.02,0.03,0.05,0.07l-0.02-0.04l-0.27-0.43l-0.72-1.14
		c-1.76-2.83-3.55-5.86-4.42-8.36c-0.13-0.32-0.17-0.59-0.27-0.88c-0.05-0.26-0.13-0.53-0.15-0.75c-0.08-0.46-0.04-0.76-0.02-0.98
		c0.04-0.2,0.12-0.34,0.24-0.58c0.15-0.23,0.42-0.56,0.8-0.91c0.78-0.72,2.04-1.5,3.4-2.21c1.37-0.73,2.9-1.38,4.45-2.05
		c3.11-1.33,6.43-2.55,9.74-3.78l2.53-0.96l2.57-1.01c1.7-0.69,3.39-1.39,5.06-2.13c3.33-1.49,6.62-3.03,9.84-4.66
		c3.24-1.63,6.43-3.31,9.61-5.03l4.74-2.61l2.4-1.35l2.31-1.36l9.24-5.42l1.15-0.68l0.37-0.22l0.28-0.18l0.57-0.35l2.27-1.41
		l2.27-1.41l1.14-0.71l0.28-0.18l0.2-0.12l0.07-0.05l0.22-0.16c0.26-0.2,0.47-0.39,0.67-0.62c0.21-0.25,0.42-0.55,0.59-0.92
		c0.35-0.74,0.37-1.7,0.2-2.29c-0.16-0.62-0.39-1.02-0.59-1.35c-0.24-0.36-0.35-0.49-0.49-0.68l-0.2-0.27l-0.1-0.13l-0.05-0.07
		c-0.07-0.1,0.06,0.1,0.04,0.06l-0.02-0.03l-0.8-1.09l-0.2-0.27l-0.1-0.13l-0.03-0.03c0.16,0.29,0.03,0.06,0.06,0.11l-0.04-0.07
		l-0.34-0.57c-0.87-1.46-1.68-2.99-2.43-4.54c-0.37-0.78-0.72-1.57-1.05-2.36l-0.03-0.07l-0.02-0.04c-0.02-0.05,0.01,0.03,0,0.01
		l-0.06-0.16l-0.12-0.32l-0.23-0.63c-0.15-0.42-0.33-0.85-0.44-1.25c-0.54-1.58-0.97-3.29-1.26-4.99c-0.23-1.33-0.32-2.68-0.33-4.03
		c0.06,0.27,0.13,0.53,0.2,0.79c0,0,0,0.01,0,0.01l0.01,0.03c0,0.01,0,0.02,0.01,0.03l0-0.01l0.02,0.07l0.02,0.06l0.02,0.05
		l0.04,0.1l0.07,0.2c0.05,0.13,0.1,0.28,0.15,0.4l2.71,6.41l-0.41-6.89l0-0.06l-0.02-0.15c-0.01-0.16-0.03-0.31-0.04-0.47l0-0.01
		l-0.01-0.08c-0.01-0.12-0.02-0.18-0.02-0.35c-0.01-0.15-0.01-0.29-0.01-0.42c-0.01-0.26,0-0.53,0-0.81
		c0.02-0.55,0.06-1.09,0.12-1.64c0.06-0.54,0.14-1.09,0.26-1.62c0.11-0.54,0.24-1.07,0.4-1.59c0.08-0.26,0.15-0.53,0.26-0.78
		c0.02-0.04,0.03-0.09,0.05-0.13c-0.01,0.06-0.02,0.12-0.03,0.18l-0.03,0.17l-0.01,0.08l-0.01,0.04l0,0.01l0,0.01
		c0,0.04,0-0.08,0,0.09l0,0.02l0,0.03c0,0.06,0-0.07,0-0.06l0,0.01l0,0.04l-0.01,0.08l-0.02,0.16c-0.05,0.39-0.08,0.9-0.11,1.35
		c-0.04,0.9-0.04,1.81,0.03,2.72c0.13,1.81,0.45,3.62,0.95,5.38c0.25,0.88,0.53,1.75,0.87,2.59c0.33,0.85,0.69,1.68,1.09,2.5
		l-0.17-0.36l0.03,0.08l0.03,0.08l0.14,0.26c0.45,0.87,0.95,1.74,1.52,2.59c0.58,0.84,1.21,1.65,1.98,2.46
		c0.38,0.41,0.82,0.81,1.32,1.2l0.36,0.27c0.15,0.11,0.28,0.19,0.43,0.29c0.29,0.18,0.6,0.36,0.95,0.52
		c0.36,0.16,0.73,0.31,1.24,0.43c0.12,0.03,0.26,0.06,0.41,0.08l0.23,0.03c0.16,0.01-0.19,0,0.39,0.02h0.04l0.17,0l0.06,0l0.15-0.01
		l0.3-0.03c0.45-0.05,0.66-0.13,0.93-0.21c0.25-0.08,0.49-0.18,0.7-0.28c0.42-0.21,0.8-0.44,1.11-0.68
		c0.64-0.48,1.11-0.99,1.52-1.52c0.21-0.26,0.4-0.54,0.58-0.83c0.09-0.15,0.18-0.29,0.26-0.46l0.16-0.3l0.07-0.15
		c0.37-0.84,0.49-1.43,0.61-1.99c0.11-0.55,0.18-1.05,0.24-1.54l0.29-2.66c0.1-0.86,0.21-1.69,0.34-2.53
		c0.5-3.35,1.27-6.64,2.23-9.95c0.96-3.3,2.07-6.55,3.31-9.8c1.24-3.23,2.57-6.45,3.97-9.65l4.52-9.5l1.14-2.39l0.14-0.3l0.04-0.07
		c-0.01,0.02,0.01-0.02,0.01-0.03l0.04-0.08l0.31-0.59l0.61-1.18l2.44-4.69l1.24-2.32l0.62-1.12l0.64-1.14l1.3-2.31l0.65-1.15
		l0.04-0.07l0.02-0.04c-0.01,0.01,0-0.01,0.01-0.01l0.04-0.06l0.18-0.28l0.35-0.56l1.42-2.28c0.42-0.68,0.9-1.41,1.38-2.11
		l1.49-2.15c0.25-0.35,0.52-0.76,0.75-1.07l0.79-1.06l0.79-1.06l0.31-0.42l0.41-0.52l1.58-2.04l1.71-2.02l1.66-1.93l1.78-1.95
		l0.9-0.98l0.45-0.49l0.11-0.12L516.15,261.49l0.03-0.03C516.07,261.57,516.16,261.47,516.15,261.49z M492.03,297.46l0.02-0.04l0,0
		C492.04,297.43,492.04,297.44,492.03,297.46z"/>
	<path class="st2" d="M534.71,678.35c0.19,0.56,0.39,1.1,0.57,1.66C535.11,679.52,534.92,678.95,534.71,678.35z"/>
	<path class="st2" d="M529.09,664.7c2.63,5.61,4.46,10.35,5.62,13.66C533.07,673.53,531.2,668.97,529.09,664.7z"/>
	<path class="st2" d="M535.28,680.02c0.36,1.1,0.7,2.2,1.03,3.32C536.32,683.34,535.99,682.14,535.28,680.02z"/>
</g>
<g>
	<path class="st3" d="M541.33,456.74h-6.15c-2.96,0-5.39-1.13-7.44-3.46c-1.52-1.77-2.51-3.79-3.04-6.04
		c-1.9-9.42-5.62-14.09-11.16-14.01c-4.25,0.08-7.21,2.9-8.96,8.46h14.58v9.91c0,6.28-1.97,11.6-5.92,16.03
		c-3.87,4.43-8.66,6.68-14.2,6.68c-5.54,0-10.25-2.25-14.2-6.68c-3.95-4.43-5.92-9.74-5.92-16.11c-0.08-2.01-0.15-5.24-0.3-9.83
		h7.97c0,1.37,0,3.3,0.08,5.64c0.08,2.34,0.15,3.71,0.15,4.27c0,4.27,1.37,7.81,4.18,10.47c2.43,2.34,5.09,3.46,7.97,3.46
		c3.11,0,5.77-1.13,8.12-3.46c2.73-2.66,4.1-6.2,4.1-10.63l-0.08-1.85h-16.17c0-8.13,1.67-14.33,5.01-18.76
		c3.26-4.19,7.67-6.28,13.21-6.28c6,0,10.71,2.5,14.05,7.49c1.75,2.74,3.26,6.68,4.56,11.76c0.91,3.46,2.96,5.15,6.15,5.15h3.42
		V456.74z M498.13,488.39h-7.29v-8.13h7.29V488.39z M509.14,488.39h-7.29v-8.13h7.29V488.39z"/>
	<path class="st3" d="M576.03,456.74h-7.44c-2.28,0-4.25-1.05-5.85-3.06c-0.83-1.13-1.52-2.25-1.9-3.46
		c-1.29,3.95-5.24,6.44-9.42,6.52h-12v-7.81h8.96c1.44,0,2.73-0.4,3.95-1.29c1.59-1.05,2.35-2.5,2.35-4.35l-0.15-15.95h7.97
		c0,2.98,0.08,7.17,0.23,12.56c0,2.82,0.76,5.07,2.35,6.76c1.29,1.53,2.66,2.26,4.18,2.26h6.76v2.01v3.79V456.74z M563.2,468.98
		h-7.37v-8.13h7.37V468.98z"/>
	<path class="st3" d="M632.75,456.74h-58.01v-7.81h7.59l-0.23-39.95h7.9l-0.46,25.85c3.64-5.07,8.43-7.65,14.35-7.65
		c10.55,0,16.48,7.25,17.77,21.75h11.09V456.74z M613.7,448.93c-0.08-9.42-3.42-14.09-9.95-14.09c-7.06,0-12.22,4.67-15.34,14.09
		H613.7z"/>
	<path class="st3" d="M649.62,446.27c0,6.44-3.64,10.47-10.25,10.47h-8.05v-7.81h5.16c2.96,0,5.16-1.93,5.16-5.56
		c0-4.99-0.08-11.44-0.15-19.33c-0.08-8.94-0.15-15.46-0.15-19.41h7.97c0.08,3.7,0.08,10.63,0.15,20.86
		C649.54,434.19,649.62,441.11,649.62,446.27z"/>
	<path class="st3" d="M667.84,456.74h-7.97l-0.38-52.11h7.97L667.84,456.74z"/>
	<path class="st3" d="M689.41,435.07h7.97l0.15,8.86c0.23,11.6-0.46,12.81,3.64,17.48c2.43,2.74,5.24,4.11,8.66,4.11
		c6.76,0,12.22-6.52,12.22-14.01l-0.53-47.76h8.12l0.23,37.77c0.15,3.95,3.26,7.41,6.53,7.41h6.83v5.8
		c0.08,0.89,0.08,1.53,0.08,2.01h-6.45c-2.81,0-5.16-1.61-6.91-4.75c-0.15,12.16-9.19,22.31-20.12,22.31
		c-11.01,0-20.12-10.39-20.12-22.79C689.71,451.02,689.41,435.07,689.41,435.07z"/>
	<path class="st3" d="M777.71,456.74h-6.76c-2.28,0-4.25-1.05-5.85-3.06c-0.84-1.13-1.52-2.25-1.9-3.46
		c-1.29,3.95-5.24,6.44-9.42,6.52h-12v-7.81h8.96c1.44,0,2.73-0.4,3.95-1.29c1.59-1.05,2.35-2.5,2.35-4.35l-0.15-15.95h7.97
		c0,2.98,0.08,7.17,0.23,12.56c0,2.82,0.76,5.07,2.35,6.76c1.29,1.53,2.66,2.26,4.18,2.26h6.07v2.01v3.79V456.74z M757.44,468.98
		h-7.37v-8.13h7.37V468.98z M768.38,468.98h-7.29v-8.13h7.29V468.98z"/>
	<path class="st3" d="M817.65,456.74h-7.82c-2.2,4.91-6.3,7.33-12.3,7.33c-5.7,0-9.87-2.42-12.53-7.33h-8.73v-7.81h6.76
		c0-9.34,5.32-15.14,13.9-15.14c4.48,0,8.05,1.61,10.71,4.75c2.51,2.9,3.8,6.36,3.8,10.39h6.23V456.74z M803.46,448.93
		c0-2.5-0.68-4.51-1.97-6.04c-1.14-1.37-2.58-2.01-4.18-2.01c-1.67,0-3.04,0.64-4.1,2.01c-1.14,1.45-1.75,3.46-1.75,6.04
		s0.68,4.59,1.97,6.12c1.14,1.37,2.58,2.01,4.18,2.01C800.95,457.06,803.46,454.16,803.46,448.93z"/>
	<path class="st3" d="M864.73,456.74h-8.96h-39.48v-7.81h33.33c-1.52-9.58-5.92-14.34-13.21-14.34c-4.63,0-7.97,0.89-10.1,2.74
		l-3.11-6.6c3.04-2.82,7.52-4.19,13.44-4.19c6.15,0,11.01,2.25,14.65,6.85c3.11,3.79,5.09,9.02,6,15.54h7.44V456.74z M841.58,468.98
		h-7.29v-8.13h7.29V468.98z"/>
	<path class="st3" d="M899.89,456.74h-7.44c-2.28,0-4.25-1.05-5.85-3.06c-0.84-1.13-1.52-2.25-1.9-3.46
		c-1.29,3.95-5.24,6.44-9.42,6.52h-12v-7.81h8.96c1.44,0,2.73-0.4,3.95-1.29c1.59-1.05,2.35-2.5,2.35-4.35l-0.15-15.95h7.97
		c0,2.98,0.08,7.17,0.23,12.56c0,2.82,0.76,5.07,2.35,6.76c1.29,1.53,2.66,2.26,4.18,2.26h6.76v2.01v3.79V456.74z M880.3,420.82
		h-7.36v-8.13h7.36V420.82z M891.31,420.82h-7.37v-8.13h7.37V420.82z"/>
	<path class="st3" d="M916.9,446.27c0,6.44-3.64,10.47-10.25,10.47h-8.05v-7.81h5.16c2.96,0,5.16-1.93,5.16-5.56
		c0-4.99-0.08-11.44-0.15-19.33c-0.08-8.94-0.15-15.46-0.15-19.41h7.97c0.08,3.7,0.08,10.63,0.15,20.86
		C916.83,434.19,916.9,441.11,916.9,446.27z"/>
	<path class="st3" d="M935.13,456.74h-7.97l-0.38-52.11h7.97L935.13,456.74z"/>
	<path class="st3" d="M994.05,456.74h-10.78c-5.39,0-8.05-2.9-8.05-8.7h-9.49c-6,0-9.04-3.87-9.04-11.68c0-5.07,1.29-8.94,3.87-11.6
		c2.05-2.17,4.4-3.3,7.06-3.3c3.19,0,5.62,1.21,7.37,3.54h0.15v-2.9h7.97l0.08,22.79c0,2.66,1.06,4.03,3.11,4.03h7.75V456.74z
		 M975.22,440.23l-0.08-6.6c-1.44-2.5-3.27-3.7-5.47-3.7c-3.49,0-5.09,2.17-4.86,6.44c0.15,2.58,1.37,3.87,3.72,3.87H975.22z"/>
	<path class="st3" d="M1014.71,446.27c0,6.44-3.57,10.47-10.17,10.47h-11.92v-7.81h8.96c2.96,0,5.16-1.93,5.16-5.56
		c0-3.14,0-5.8-0.08-7.97c-0.08-3.3-0.08-6.04-0.15-8.05h8.05C1014.63,440.07,1014.71,446.35,1014.71,446.27z M1013.95,420.9h-7.36
		v-8.13h7.36V420.9z"/>
	<path class="st3" d="M1032.93,456.74h-7.97l-0.38-52.11h7.97L1032.93,456.74z"/>
	<path class="st3" d="M1075.53,456.74h-33.48l3.8-7.81h21.11c-0.46-4.43-1.9-7.97-4.4-10.63c-2.05-2.17-4.1-3.3-6.15-3.3v-7.65
		c6,0,10.71,2.42,13.97,7.17C1073.78,439.58,1075.53,446.99,1075.53,456.74z"/>
	<path class="st3" d="M1138.4,456.74h-6.83c-3.34,0-6.15-1.29-8.43-3.79c-2.05-2.09-3.49-4.91-4.4-8.54h-5.39
		c-5.39,0-8.43,3.3-8.43,8.7c0,2.58,0.91,4.75,2.66,6.44c1.59,1.61,3.49,2.42,5.54,2.42h11.24v7.81h-11.84
		c-4.25,0-7.9-1.61-10.93-4.83c-2.96-3.14-4.48-7.01-4.48-11.52c0-4.35,1.21-8.13,3.57-11.44c2.5-3.46,5.69-5.32,9.72-5.56
		c-0.61-0.56-1.14-1.29-1.59-2.09c-1.06-1.85-1.59-4.11-1.59-6.68c-0.08-4.19,1.37-7.49,4.18-9.91c2.35-2.01,5.24-3.06,8.58-3.06
		c4.48,0,8.05,1.69,10.71,5.15l-4.18,5.96c-1.9-1.85-3.72-2.82-5.62-2.82c-3.26,0-5.62,2.5-5.62,6.04c0,2.5,0.99,4.43,3.04,5.8
		c1.67,1.05,3.72,1.61,6.15,1.61h6.83v7.97h-4.25c1.14,2.98,2.88,4.51,5.31,4.51h6.07v2.01v3.79V456.74z"/>
	<path class="st3" d="M1178.34,456.74h-7.82c-2.2,4.91-6.3,7.33-12.3,7.33c-5.69,0-9.87-2.42-12.53-7.33h-8.73v-7.81h6.76
		c0-9.34,5.32-15.14,13.89-15.14c4.48,0,8.05,1.61,10.71,4.75c2.51,2.9,3.8,6.36,3.8,10.39h6.23V456.74z M1164.14,448.93
		c0-2.5-0.68-4.51-1.97-6.04c-1.14-1.37-2.58-2.01-4.18-2.01c-1.67,0-3.04,0.64-4.1,2.01c-1.14,1.45-1.75,3.46-1.75,6.04
		s0.68,4.59,1.97,6.12c1.14,1.37,2.58,2.01,4.18,2.01C1161.64,457.06,1164.14,454.16,1164.14,448.93z"/>
	<path class="st3" d="M1225.42,456.74h-8.96h-39.48v-7.81h33.33c-1.52-9.58-5.92-14.34-13.21-14.34c-4.63,0-7.97,0.89-10.1,2.74
		l-3.11-6.6c3.04-2.82,7.52-4.19,13.44-4.19c6.15,0,11.01,2.25,14.65,6.85c3.11,3.79,5.09,9.02,6,15.54h7.44V456.74z
		 M1202.26,468.98h-7.29v-8.13h7.29V468.98z"/>
	<path class="st3" d="M1259.82,441.6c0,9.34-5.01,15.14-13.52,15.14h-22.32v-7.81h9.19c-1.06-2.34-1.59-4.75-1.59-7.33
		c0-9.34,5.09-15.14,13.82-15.14c4.4,0,7.97,1.61,10.78,4.83C1258.6,434.19,1259.82,437.65,1259.82,441.6z M1251.92,441.68
		c0-2.5-0.68-4.59-1.97-6.12c-1.14-1.37-2.58-2.01-4.18-2.01c-1.75,0-3.11,0.64-4.18,2.01c-1.14,1.53-1.67,3.54-1.67,6.12
		c0,2.5,0.68,4.59,1.97,6.12c1.14,1.37,2.58,2.01,4.18,2.01C1249.42,449.81,1251.92,446.83,1251.92,441.68z"/>
</g>
<g>
	<path class="st3" d="M483.39,552.04V513.5h12.5c5.54,0,9.93,1.8,13.17,5.41c3.24,3.61,4.85,8.23,4.85,13.86
		c0,5.67-1.62,10.3-4.85,13.89c-3.24,3.59-7.63,5.38-13.17,5.38H483.39z M495.89,546.43c3.68,0,6.59-1.23,8.71-3.68
		c2.12-2.46,3.19-5.78,3.19-9.98s-1.06-7.52-3.19-9.98s-5.03-3.68-8.71-3.68h-6.52v27.32H495.89z"/>
	<path class="st3" d="M544.08,547.68c0.7,0,1.26-0.11,1.69-0.34v4.7c-1.06,0.38-2.24,0.57-3.53,0.57c-3.29,0-5.2-1.55-5.73-4.65
		c-2.26,3.1-5.29,4.65-9.11,4.65c-2.59,0-4.66-0.77-6.2-2.32c-1.54-1.55-2.31-3.51-2.31-5.9c0-3.17,1.08-5.57,3.24-7.2
		c2.16-1.62,5.04-2.44,8.66-2.44c1.89,0,3.73,0.15,5.53,0.45v-2.04c0-1.51-0.51-2.74-1.52-3.68s-2.6-1.42-4.75-1.42
		c-3.05,0-6.04,0.78-8.96,2.32l-1.05-4.87c3.02-1.59,6.6-2.38,10.75-2.38c3.68,0,6.48,0.93,8.39,2.78c1.91,1.85,2.86,4.42,2.86,7.71
		v11.28c0,0.94,0.14,1.64,0.42,2.1C542.75,547.45,543.29,547.68,544.08,547.68z M529.45,547.62c2.59,0,4.88-1.19,6.87-3.57v-4.19
		c-1.43-0.26-3.14-0.4-5.13-0.4c-2.29,0-3.93,0.34-4.93,1.02c-1,0.68-1.49,1.68-1.49,3c0,1.32,0.42,2.34,1.27,3.06
		C526.88,547.26,528.02,547.62,529.45,547.62z"/>
	<path class="st3" d="M563.35,523.14c2.85,0,5.05,0.9,6.57,2.69c1.53,1.79,2.29,4.39,2.29,7.79v18.42h-5.72v-18.31
		c0-1.81-0.46-3.21-1.37-4.19c-0.91-0.98-2.23-1.47-3.96-1.47c-2.32,0-4.33,1.13-6.02,3.4v20.58h-5.73V523.7h5.23l0.45,4.19
		C557.08,524.72,559.83,523.14,563.35,523.14z"/>
	<path class="st3" d="M602.88,547.68c0.7,0,1.26-0.11,1.69-0.34v4.7c-1.06,0.38-2.24,0.57-3.54,0.57c-3.29,0-5.19-1.55-5.73-4.65
		c-2.26,3.1-5.29,4.65-9.11,4.65c-2.59,0-4.66-0.77-6.2-2.32c-1.54-1.55-2.32-3.51-2.32-5.9c0-3.17,1.08-5.57,3.24-7.2
		c2.16-1.62,5.04-2.44,8.66-2.44c1.89,0,3.73,0.15,5.53,0.45v-2.04c0-1.51-0.51-2.74-1.52-3.68s-2.6-1.42-4.75-1.42
		c-3.05,0-6.04,0.78-8.96,2.32l-1.04-4.87c3.02-1.59,6.6-2.38,10.75-2.38c3.68,0,6.48,0.93,8.39,2.78c1.91,1.85,2.86,4.42,2.86,7.71
		v11.28c0,0.94,0.14,1.64,0.42,2.1C601.54,547.45,602.08,547.68,602.88,547.68z M588.24,547.62c2.59,0,4.88-1.19,6.87-3.57v-4.19
		c-1.43-0.26-3.14-0.4-5.13-0.4c-2.29,0-3.93,0.34-4.93,1.02c-1,0.68-1.49,1.68-1.49,3c0,1.32,0.42,2.34,1.27,3.06
		S586.82,547.62,588.24,547.62z"/>
	<path class="st3" d="M647.44,549.38c-3.39,2.15-7.17,3.23-11.35,3.23c-5.24,0-9.5-1.79-12.77-5.38c-3.27-3.59-4.9-8.41-4.9-14.45
		s1.64-10.86,4.93-14.45c3.29-3.59,7.62-5.38,12.99-5.38c4.28,0,8.07,1.08,11.35,3.23l-1,5.95c-3.12-2.38-6.52-3.57-10.21-3.57
		c-3.62,0-6.51,1.26-8.69,3.77c-2.17,2.51-3.26,6-3.26,10.46c0,4.42,1.08,7.9,3.24,10.43s4.98,3.8,8.46,3.8
		c4.25,0,7.98-1.25,11.2-3.74V549.38z"/>
	<path class="st3" d="M665.61,523.14c4.21,0,7.53,1.41,9.93,4.22c2.41,2.82,3.61,6.32,3.61,10.51s-1.2,7.7-3.61,10.51
		c-2.41,2.82-5.72,4.22-9.93,4.22c-4.25,0-7.58-1.41-9.98-4.22c-2.41-2.81-3.61-6.32-3.61-10.51s1.2-7.7,3.61-10.51
		C658.03,524.54,661.36,523.14,665.61,523.14z M665.56,547.62c2.49,0,4.4-0.94,5.73-2.83c1.33-1.89,1.99-4.19,1.99-6.92
		s-0.66-5.04-1.99-6.94c-1.33-1.91-3.24-2.86-5.73-2.86c-2.52,0-4.44,0.96-5.75,2.86c-1.31,1.91-1.97,4.22-1.97,6.94
		s0.66,5.03,1.97,6.92C661.12,546.68,663.04,547.62,665.56,547.62z"/>
	<path class="st3" d="M689.61,531.36c0,0.91,0.36,1.66,1.09,2.27s1.63,1.04,2.71,1.3c1.08,0.26,2.26,0.6,3.53,1.02
		c1.28,0.42,2.46,0.87,3.54,1.36c1.08,0.49,1.98,1.28,2.71,2.35c0.73,1.08,1.09,2.41,1.09,4c0,2.91-0.92,5.13-2.76,6.66
		c-1.84,1.53-4.49,2.29-7.94,2.29c-4.12,0-7.52-0.81-10.21-2.44l1.05-4.71c2.72,1.55,5.73,2.32,9.01,2.32c3.35,0,5.03-1.3,5.03-3.91
		c0-1.1-0.51-1.96-1.52-2.58c-1.01-0.62-2.23-1.11-3.66-1.47c-1.43-0.36-2.86-0.78-4.31-1.28c-1.44-0.49-2.67-1.34-3.68-2.55
		c-1.01-1.21-1.52-2.76-1.52-4.65c0-2.72,0.92-4.77,2.76-6.15c1.84-1.38,4.34-2.07,7.49-2.07c4.08,0,7.48,0.79,10.21,2.38l-1,4.7
		c-2.69-1.51-5.73-2.27-9.11-2.27C691.12,527.95,689.61,529.09,689.61,531.36z"/>
	<path class="st3" d="M740.49,523.14c2.85,0,5.04,0.9,6.57,2.69c1.53,1.79,2.29,4.39,2.29,7.79v18.42h-5.73v-18.31
		c0-1.81-0.46-3.21-1.37-4.19c-0.91-0.98-2.23-1.47-3.96-1.47c-2.26,0-4.25,1.12-5.97,3.34c0.07,0.91,0.1,1.64,0.1,2.21v18.42h-5.73
		v-18.31c0-1.81-0.46-3.21-1.37-4.19c-0.91-0.98-2.23-1.47-3.96-1.47c-2.22,0-4.18,1.13-5.88,3.4v20.58h-5.72V523.7H715l0.45,4.19
		c1.99-3.17,4.7-4.76,8.12-4.76c4.21,0,6.94,1.89,8.17,5.67C733.72,525.03,736.64,523.14,740.49,523.14z"/>
	<path class="st3" d="M779.72,537.19c0,0.79-0.03,1.68-0.1,2.66H760.8c0.33,2.57,1.21,4.55,2.64,5.95c1.43,1.4,3.35,2.1,5.78,2.1
		c3.02,0,5.82-0.74,8.41-2.21l1,4.42c-2.69,1.66-5.99,2.49-9.91,2.49c-4.51,0-7.96-1.31-10.33-3.94s-3.56-6.23-3.56-10.8
		c0-4.5,1.18-8.08,3.54-10.74c2.36-2.66,5.54-4,9.56-4c2.16,0,4.02,0.39,5.6,1.16s2.8,1.83,3.66,3.17c0.86,1.34,1.5,2.82,1.92,4.42
		C779.51,533.5,779.72,535.27,779.72,537.19z M760.85,535.21h13.14c-0.03-2.3-0.51-4.12-1.42-5.44c-0.91-1.32-2.51-1.98-4.8-1.98
		c-1.83,0-3.36,0.63-4.61,1.9C761.92,530.95,761.15,532.79,760.85,535.21z"/>
	<path class="st3" d="M793.01,513.5v10.2h8.12v4.93h-8.12v15.02c0,2.65,1.36,3.97,4.08,3.97c1.26,0,2.52-0.26,3.78-0.79l0.75,4.65
		c-1.76,0.75-3.8,1.13-6.12,1.13c-2.82,0-4.9-0.77-6.22-2.32c-1.33-1.55-1.99-3.7-1.99-6.46v-15.19h-3.98v-4.93h3.98v-9.07
		L793.01,513.5z"/>
	<path class="st3" d="M808.3,519.11l-4.18-4.53l4.18-4.54l4.03,4.54L808.3,519.11z M811.08,552.04h-5.72V523.7h5.72V552.04z"/>
	<path class="st3" d="M830.85,547.62c2.46,0,4.99-0.74,7.62-2.21l1,4.71c-2.75,1.66-5.81,2.49-9.16,2.49c-4.18,0-7.48-1.33-9.88-4
		c-2.41-2.66-3.61-6.24-3.61-10.74s1.2-8.08,3.61-10.74s5.7-4,9.88-4c3.32,0,6.37,0.81,9.16,2.44l-1,4.76
		c-2.69-1.51-5.23-2.27-7.62-2.27c-2.42,0-4.39,0.86-5.9,2.58c-1.51,1.72-2.26,4.13-2.26,7.23s0.75,5.5,2.26,7.2
		C826.46,546.77,828.43,547.62,830.85,547.62z"/>
	<path class="st3" d="M876.2,543.26h-3.49l-10.55-18.14v26.92h-5.43V513.5h5.88l12.2,21.08l12.2-21.08h5.82v38.09l-5.97,0.91v-27.38
		L876.2,543.26z"/>
	<path class="st3" d="M924.1,537.19c0,0.79-0.03,1.68-0.1,2.66h-18.82c0.33,2.57,1.21,4.55,2.64,5.95c1.43,1.4,3.35,2.1,5.78,2.1
		c3.02,0,5.82-0.74,8.41-2.21l1,4.42c-2.69,1.66-5.99,2.49-9.91,2.49c-4.51,0-7.96-1.31-10.33-3.94s-3.56-6.23-3.56-10.8
		c0-4.5,1.18-8.08,3.54-10.74c2.36-2.66,5.54-4,9.56-4c2.16,0,4.02,0.39,5.6,1.16s2.8,1.83,3.66,3.17c0.86,1.34,1.5,2.82,1.92,4.42
		C923.89,533.5,924.1,535.27,924.1,537.19z M905.23,535.21h13.14c-0.03-2.3-0.51-4.12-1.42-5.44c-0.91-1.32-2.51-1.98-4.8-1.98
		c-1.83,0-3.36,0.63-4.61,1.9C906.3,530.95,905.53,532.79,905.23,535.21z"/>
	<path class="st3" d="M940.03,523.14c3.55,0,6.34,1.61,8.36,4.82v-16.44l5.73-0.85v41.38h-5.23l-0.5-4.25
		c-2.06,3.21-4.85,4.82-8.36,4.82c-3.49,0-6.27-1.33-8.34-4c-2.07-2.66-3.11-6.24-3.11-10.74s1.04-8.08,3.11-10.74
		S936.54,523.14,940.03,523.14z M941.77,547.62c2.59,0,4.78-1.19,6.57-3.57v-12.41c-1.83-2.38-4.02-3.57-6.57-3.57
		c-2.36,0-4.17,0.91-5.45,2.72c-1.28,1.81-1.92,4.18-1.92,7.09s0.64,5.26,1.92,7.06C937.6,546.73,939.42,547.62,941.77,547.62z"/>
	<path class="st3" d="M964.03,519.11l-4.18-4.53l4.18-4.54l4.03,4.54L964.03,519.11z M966.81,552.04h-5.72V523.7h5.72V552.04z"/>
	<path class="st3" d="M986.58,547.62c2.46,0,4.99-0.74,7.62-2.21l1,4.71c-2.75,1.66-5.81,2.49-9.16,2.49c-4.18,0-7.48-1.33-9.88-4
		c-2.41-2.66-3.61-6.24-3.61-10.74s1.2-8.08,3.61-10.74s5.7-4,9.88-4c3.32,0,6.37,0.81,9.16,2.44l-1,4.76
		c-2.69-1.51-5.23-2.27-7.62-2.27c-2.42,0-4.39,0.86-5.9,2.58c-1.51,1.72-2.26,4.13-2.26,7.23s0.75,5.5,2.26,7.2
		C982.19,546.77,984.16,547.62,986.58,547.62z"/>
	<path class="st3" d="M1024.37,547.68c0.7,0,1.26-0.11,1.69-0.34v4.7c-1.06,0.38-2.24,0.57-3.54,0.57c-3.29,0-5.19-1.55-5.73-4.65
		c-2.26,3.1-5.29,4.65-9.11,4.65c-2.59,0-4.66-0.77-6.2-2.32c-1.54-1.55-2.32-3.51-2.32-5.9c0-3.17,1.08-5.57,3.24-7.2
		c2.16-1.62,5.04-2.44,8.66-2.44c1.89,0,3.73,0.15,5.53,0.45v-2.04c0-1.51-0.51-2.74-1.52-3.68s-2.6-1.42-4.75-1.42
		c-3.05,0-6.04,0.78-8.96,2.32l-1.04-4.87c3.02-1.59,6.6-2.38,10.75-2.38c3.68,0,6.48,0.93,8.39,2.78c1.91,1.85,2.86,4.42,2.86,7.71
		v11.28c0,0.94,0.14,1.64,0.42,2.1C1023.03,547.45,1023.57,547.68,1024.37,547.68z M1009.73,547.62c2.59,0,4.88-1.19,6.87-3.57
		v-4.19c-1.43-0.26-3.14-0.4-5.13-0.4c-2.29,0-3.93,0.34-4.93,1.02c-1,0.68-1.49,1.68-1.49,3c0,1.32,0.42,2.34,1.27,3.06
		S1008.3,547.62,1009.73,547.62z"/>
	<path class="st3" d="M1029.69,552.04v-40.53l5.72-0.85v41.38H1029.69z"/>
	<path class="st3" d="M1081.62,549.38c-3.39,2.15-7.17,3.23-11.35,3.23c-5.24,0-9.5-1.79-12.77-5.38c-3.27-3.59-4.9-8.41-4.9-14.45
		s1.64-10.86,4.93-14.45c3.29-3.59,7.62-5.38,12.99-5.38c4.28,0,8.07,1.08,11.35,3.23l-1,5.95c-3.12-2.38-6.52-3.57-10.21-3.57
		c-3.62,0-6.51,1.26-8.69,3.77c-2.17,2.51-3.26,6-3.26,10.46c0,4.42,1.08,7.9,3.24,10.43s4.98,3.8,8.46,3.8
		c4.25,0,7.98-1.25,11.2-3.74V549.38z"/>
	<path class="st3" d="M1099.79,523.14c4.21,0,7.53,1.41,9.93,4.22c2.41,2.82,3.61,6.32,3.61,10.51s-1.2,7.7-3.61,10.51
		c-2.41,2.82-5.72,4.22-9.93,4.22c-4.25,0-7.58-1.41-9.98-4.22c-2.41-2.81-3.61-6.32-3.61-10.51s1.2-7.7,3.61-10.51
		C1092.22,524.54,1095.54,523.14,1099.79,523.14z M1099.74,547.62c2.49,0,4.4-0.94,5.73-2.83c1.33-1.89,1.99-4.19,1.99-6.92
		s-0.66-5.04-1.99-6.94c-1.33-1.91-3.24-2.86-5.73-2.86c-2.52,0-4.44,0.96-5.75,2.86c-1.31,1.91-1.97,4.22-1.97,6.94
		s0.66,5.03,1.97,6.92C1095.3,546.68,1097.22,547.62,1099.74,547.62z"/>
	<path class="st3" d="M1149.78,523.14c2.85,0,5.04,0.9,6.57,2.69c1.53,1.79,2.29,4.39,2.29,7.79v18.42h-5.73v-18.31
		c0-1.81-0.46-3.21-1.37-4.19c-0.91-0.98-2.23-1.47-3.96-1.47c-2.26,0-4.25,1.12-5.97,3.34c0.07,0.91,0.1,1.64,0.1,2.21v18.42h-5.73
		v-18.31c0-1.81-0.46-3.21-1.37-4.19c-0.91-0.98-2.23-1.47-3.96-1.47c-2.22,0-4.18,1.13-5.88,3.4v20.58h-5.72V523.7h5.23l0.45,4.19
		c1.99-3.17,4.7-4.76,8.12-4.76c4.21,0,6.94,1.89,8.17,5.67C1143.01,525.03,1145.93,523.14,1149.78,523.14z"/>
	<path class="st3" d="M1179.45,552.61c-3.52,0-6.31-1.61-8.36-4.82v16.44l-5.72,0.85V523.7h5.23l0.5,4.25
		c2.02-3.21,4.81-4.82,8.36-4.82c3.49,0,6.26,1.33,8.34,4s3.11,6.24,3.11,10.74s-1.04,8.08-3.11,10.74
		C1185.71,551.28,1182.93,552.61,1179.45,552.61z M1177.71,528.07c-2.52,0-4.73,1.19-6.62,3.57v12.41c1.83,2.38,4.03,3.57,6.62,3.57
		c2.32,0,4.12-0.9,5.4-2.69c1.28-1.79,1.92-4.15,1.92-7.06s-0.64-5.27-1.92-7.09C1181.83,528.97,1180.03,528.07,1177.71,528.07z"/>
	<path class="st3" d="M1196.63,552.04v-40.53l5.72-0.85v41.38H1196.63z"/>
	<path class="st3" d="M1232.97,537.19c0,0.79-0.03,1.68-0.1,2.66h-18.82c0.33,2.57,1.21,4.55,2.64,5.95c1.43,1.4,3.35,2.1,5.78,2.1
		c3.02,0,5.82-0.74,8.41-2.21l1,4.42c-2.69,1.66-5.99,2.49-9.91,2.49c-4.51,0-7.96-1.31-10.33-3.94s-3.56-6.23-3.56-10.8
		c0-4.5,1.18-8.08,3.54-10.74c2.36-2.66,5.54-4,9.56-4c2.16,0,4.02,0.39,5.6,1.16s2.8,1.83,3.66,3.17c0.86,1.34,1.5,2.82,1.92,4.42
		C1232.76,533.5,1232.97,535.27,1232.97,537.19z M1214.1,535.21h13.14c-0.03-2.3-0.51-4.12-1.42-5.44c-0.91-1.32-2.51-1.98-4.8-1.98
		c-1.83,0-3.36,0.63-4.61,1.9C1215.17,530.95,1214.4,532.79,1214.1,535.21z"/>
	<path class="st3" d="M1254.92,552.04l-6.42-10.03l-6.47,10.03h-6.32l9.66-14.85l-9.01-13.49h6.37l5.97,9.13l5.82-9.13h6.17
		l-8.76,13.38l9.66,14.96H1254.92z"/>
</g>
</svg>
